<svg width="189" height="88" viewBox="0 0 189 88" fill="none" xmlns="http://www.w3.org/2000/svg">
<path d="M15.4224 17.12C18.5491 15.9533 21.3724 15.44 23.8924 15.58C26.4591 15.72 28.7458 16.3733 30.7524 17.54C32.7591 18.66 34.4624 20.1767 35.8624 22.09C37.3091 24.0033 38.4758 26.15 39.3624 28.53C40.0624 30.3033 40.5991 32.17 40.9724 34.13C41.3458 36.09 41.5558 38.05 41.6024 40.01C41.6958 41.9233 41.6258 43.8133 41.3924 45.68C41.2058 47.5467 40.8791 49.2733 40.4124 50.86C40.1324 51.9333 39.8058 52.9133 39.4324 53.8C39.0591 54.6867 38.6158 55.5733 38.1024 56.46C36.9358 58.4667 35.4191 60.1 33.5524 61.36C31.7324 62.62 29.7258 63.5067 27.5324 64.02C26.0391 64.3933 24.4991 64.58 22.9124 64.58C21.3258 64.5333 19.7624 64.3233 18.2224 63.95C16.6824 63.53 15.1891 62.9467 13.7424 62.2C12.3424 61.4067 11.0591 60.4267 9.89242 59.26C8.44576 57.86 7.25576 56.25 6.32242 54.43C5.38909 52.5633 4.66576 50.6267 4.15242 48.62C3.63909 46.5667 3.31242 44.5133 3.17242 42.46C3.03242 40.4067 3.03242 38.4467 3.17242 36.58C3.31242 34.8533 3.63909 33.01 4.15242 31.05C4.71242 29.09 5.50576 27.2 6.53242 25.38C7.55909 23.56 8.79576 21.9267 10.2424 20.48C11.7358 18.9867 13.4624 17.8667 15.4224 17.12ZM31.8024 47.08C32.3624 44.8867 32.5958 42.4133 32.5024 39.66C32.4091 36.9067 31.9658 34.3167 31.1724 31.89C30.6591 30.3967 30.0058 29.09 29.2124 27.97C28.4658 26.8033 27.5558 25.9167 26.4824 25.31C25.4558 24.7033 24.2424 24.4 22.8424 24.4C21.4424 24.4 19.8791 24.82 18.1524 25.66C17.1258 26.1733 16.2391 26.8733 15.4924 27.76C14.7924 28.6467 14.2091 29.65 13.7424 30.77C13.3224 31.89 12.9724 33.0567 12.6924 34.27C12.4591 35.4833 12.3191 36.65 12.2724 37.77C12.1791 38.9833 12.1558 40.2667 12.2024 41.62C12.2491 42.9267 12.3891 44.2567 12.6224 45.61C12.9024 46.9167 13.2758 48.1767 13.7424 49.39C14.2091 50.5567 14.8391 51.6067 15.6324 52.54C16.8458 53.94 18.2458 54.92 19.8324 55.48C21.4658 55.9933 23.0758 56.0633 24.6624 55.69C27.2291 55.13 29.1891 53.4267 30.5424 50.58C31.1024 49.5533 31.5224 48.3867 31.8024 47.08ZM73.3693 38.05C73.7426 38.7033 73.9293 39.4033 73.9293 40.15C73.976 40.8967 73.8126 41.5967 73.4393 42.25C73.0193 43.09 72.4126 43.6733 71.6193 44C70.8726 44.28 70.0326 44.3033 69.0993 44.07C68.6793 43.9767 68.306 43.8133 67.9793 43.58C67.6526 43.3467 67.3026 43.1133 66.9293 42.88C66.6026 42.6 66.206 42.3433 65.7393 42.11C65.3193 41.8767 64.7593 41.7133 64.0593 41.62C63.3593 41.5267 62.5893 41.5267 61.7493 41.62C60.956 41.7133 60.2326 41.9 59.5793 42.18C58.5526 42.6933 57.736 43.4867 57.1293 44.56C56.5226 45.5867 56.126 46.7067 55.9393 47.92C55.7526 49.0867 55.776 50.2767 56.0093 51.49C56.2893 52.7033 56.8026 53.73 57.5493 54.57C58.1093 55.2233 58.8326 55.76 59.7193 56.18C60.6526 56.6 61.5393 56.8567 62.3793 56.95C63.1726 57.0433 63.966 57.0433 64.7593 56.95C65.5526 56.81 66.3226 56.6233 67.0693 56.39C67.6293 56.1567 68.2593 55.8533 68.9593 55.48C69.6593 55.06 70.336 54.8033 70.9893 54.71C71.8293 54.71 72.4826 54.9433 72.9493 55.41C73.416 55.83 73.7426 56.3667 73.9293 57.02C74.116 57.6267 74.1393 58.28 73.9993 58.98C73.906 59.68 73.6493 60.2867 73.2293 60.8C72.6693 61.5 71.876 62.1767 70.8493 62.83C69.8226 63.4367 68.8426 63.88 67.9093 64.16C66.7893 64.5333 65.5293 64.7433 64.1293 64.79C62.776 64.8367 61.4926 64.79 60.2793 64.65C59.7193 64.5567 59.136 64.44 58.5293 64.3C57.9226 64.16 57.3393 63.9967 56.7793 63.81C54.726 63.0633 52.9993 62.0133 51.5993 60.66C50.246 59.26 49.196 57.6967 48.4493 55.97C47.7493 54.2433 47.3526 52.4 47.2593 50.44C47.166 48.48 47.3993 46.5433 47.9593 44.63C48.4726 42.81 49.1026 41.27 49.8493 40.01C50.6426 38.75 51.5526 37.7233 52.5793 36.93C53.6526 36.09 54.8426 35.4367 56.1493 34.97C57.456 34.4567 58.9026 34.0133 60.4893 33.64C62.1226 33.3133 63.8493 33.3133 65.6693 33.64C67.4893 33.9667 69.1226 34.5733 70.5693 35.46C71.6893 36.0667 72.6226 36.93 73.3693 38.05ZM107.434 34.13C107.807 35.0167 107.831 35.9967 107.504 37.07C107.224 38.1433 106.687 38.8433 105.894 39.17C105.474 39.3567 104.914 39.52 104.214 39.66C103.514 39.7533 102.744 39.8467 101.904 39.94C101.111 40.0333 100.317 40.1033 99.5241 40.15C98.7308 40.1967 98.0541 40.22 97.4941 40.22C97.5408 41.62 97.5875 43.0667 97.6341 44.56C97.6808 46.0067 97.7275 47.43 97.7741 48.83C97.8208 50.23 97.8441 51.5833 97.8441 52.89C97.8441 54.15 97.8208 55.2933 97.7741 56.32C97.7741 57.02 97.7741 57.8367 97.7741 58.77C97.7741 59.6567 97.7041 60.52 97.5641 61.36C97.4708 62.2 97.3075 62.9467 97.0741 63.6C96.8408 64.2067 96.4908 64.6033 96.0241 64.79C94.5775 65.3967 93.2475 65.56 92.0341 65.28C90.8675 65.0467 90.0275 64.5567 89.5141 63.81C89.1408 63.2033 88.8608 62.5033 88.6741 61.71C88.4875 60.87 88.3475 60.03 88.2541 59.19C88.2075 58.3033 88.1841 57.4633 88.1841 56.67C88.2308 55.83 88.2541 55.1067 88.2541 54.5C88.3008 52.54 88.3241 50.3233 88.3241 47.85C88.3708 45.33 88.3941 42.81 88.3941 40.29H87.3441C86.7841 40.29 86.0608 40.29 85.1741 40.29C84.3341 40.2433 83.4708 40.1733 82.5841 40.08C81.7441 39.94 80.9508 39.7767 80.2041 39.59C79.4575 39.3567 78.9208 39.03 78.5941 38.61C78.0808 38.0033 77.7541 37.35 77.6141 36.65C77.5208 35.95 77.5675 35.2967 77.7541 34.69C77.9875 34.0367 78.3375 33.4767 78.8041 33.01C79.2708 32.4967 79.8075 32.17 80.4141 32.03C81.2541 31.7967 82.4441 31.68 83.9841 31.68C85.5241 31.6333 86.9708 31.6333 88.3241 31.68C88.2775 31.2133 88.2541 30.77 88.2541 30.35C88.2541 29.8833 88.2308 29.44 88.1841 29.02C88.1375 28.46 88.1141 27.76 88.1141 26.92C88.1141 26.0333 88.1608 25.17 88.2541 24.33C88.3941 23.4433 88.6041 22.6267 88.8841 21.88C89.1641 21.0867 89.5608 20.48 90.0741 20.06C90.7741 19.5 91.4741 19.1967 92.1741 19.15C92.9208 19.0567 93.5975 19.15 94.2041 19.43C94.8575 19.71 95.3941 20.13 95.8141 20.69C96.2808 21.2033 96.6075 21.7867 96.7941 22.44C96.9341 23 97.0508 23.6767 97.1441 24.47C97.2375 25.2167 97.2841 26.01 97.2841 26.85C97.3308 27.69 97.3541 28.53 97.3541 29.37C97.3541 30.21 97.3541 30.98 97.3541 31.68H98.0541C98.7541 31.68 99.5708 31.6567 100.504 31.61C101.437 31.5633 102.347 31.5867 103.234 31.68C104.167 31.7733 105.007 32.0067 105.754 32.38C106.501 32.7067 107.061 33.29 107.434 34.13ZM118.547 35.53C119.947 34.83 121.417 34.34 122.957 34.06C124.497 33.7333 126.013 33.6633 127.507 33.85C129.047 33.99 130.517 34.3867 131.917 35.04C133.317 35.6467 134.623 36.5333 135.837 37.7C137.05 38.9133 137.983 40.2433 138.637 41.69C139.29 43.1367 139.757 44.7467 140.037 46.52C140.223 47.7333 140.527 48.8533 140.947 49.88C141.367 50.9067 141.81 51.9333 142.277 52.96C142.79 53.9867 143.257 55.0133 143.677 56.04C144.143 57.0667 144.517 58.14 144.797 59.26C145.03 60.3333 144.937 61.3833 144.517 62.41C144.143 63.39 143.35 63.9967 142.137 64.23C141.437 64.37 140.76 64.3233 140.107 64.09C139.5 63.81 138.94 63.4367 138.427 62.97C137.913 62.4567 137.447 61.92 137.027 61.36C136.653 60.7533 136.303 60.1933 135.977 59.68C134.903 61.08 133.737 62.1767 132.477 62.97C131.217 63.7167 129.7 64.2067 127.927 64.44C126.433 64.6267 125.01 64.6733 123.657 64.58C122.303 64.4867 120.857 64.23 119.317 63.81C117.31 63.2967 115.653 62.41 114.347 61.15C113.087 59.8433 112.107 58.35 111.407 56.67C110.753 54.9433 110.403 53.1 110.357 51.14C110.31 49.18 110.543 47.2433 111.057 45.33C111.71 42.81 112.69 40.7567 113.997 39.17C115.303 37.5833 116.82 36.37 118.547 35.53ZM120.297 43.72C119.643 44.3733 119.13 45.1433 118.757 46.03C118.383 46.9167 118.15 47.85 118.057 48.83C118.01 49.81 118.103 50.79 118.337 51.77C118.57 52.75 118.943 53.6133 119.457 54.36C119.923 55.0133 120.717 55.5733 121.837 56.04C122.957 56.46 124.123 56.7167 125.337 56.81C126.737 56.9033 127.95 56.53 128.977 55.69C130.05 54.85 130.843 53.8 131.357 52.54C131.917 51.2333 132.173 49.8567 132.127 48.41C132.08 46.9167 131.683 45.5633 130.937 44.35C130.377 43.4633 129.63 42.81 128.697 42.39C127.81 41.97 126.853 41.76 125.827 41.76C124.8 41.7133 123.773 41.8767 122.747 42.25C121.767 42.5767 120.95 43.0667 120.297 43.72ZM180.93 19.85C182.704 21.4833 184.01 23.4433 184.85 25.73C185.69 27.97 186.017 30.21 185.83 32.45C185.644 34.5967 184.967 36.58 183.8 38.4C182.634 40.1733 180.86 41.5267 178.48 42.46C176.614 43.2533 174.77 43.8133 172.95 44.14C171.13 44.4667 169.124 44.7233 166.93 44.91C165.95 45.0033 165.11 45.0733 164.41 45.12C163.757 45.12 162.987 45.1433 162.1 45.19C161.914 45.19 161.587 45.19 161.12 45.19C160.7 45.19 160.397 45.2133 160.21 45.26V59.75C160.07 60.6367 159.884 61.5467 159.65 62.48C159.464 63.4133 158.927 64.1367 158.04 64.65C157.527 64.93 156.897 65.0933 156.15 65.14C155.404 65.1867 154.727 65.1633 154.12 65.07C153.467 64.9767 152.907 64.8133 152.44 64.58C152.02 64.3 151.67 63.8333 151.39 63.18C151.204 62.76 151.017 62.2933 150.83 61.78C150.69 61.22 150.62 60.5433 150.62 59.75V21.04C150.62 20.7133 150.644 20.41 150.69 20.13C150.737 19.85 150.784 19.57 150.83 19.29C150.924 19.0567 150.994 18.8 151.04 18.52C151.087 18.24 151.157 17.9833 151.25 17.75C151.344 17.5167 151.437 17.3067 151.53 17.12C151.67 16.9333 151.834 16.77 152.02 16.63C152.254 16.3967 152.604 16.1867 153.07 16C153.584 15.8133 154.33 15.72 155.31 15.72H155.45C156.897 15.6267 158.507 15.5567 160.28 15.51C162.054 15.4167 163.524 15.44 164.69 15.58C165.344 15.6733 165.95 15.7433 166.51 15.79C167.07 15.79 167.607 15.8133 168.12 15.86C168.68 15.9067 169.24 15.9533 169.8 16C170.36 16.0467 170.92 16.1167 171.48 16.21C171.947 16.3033 172.367 16.3733 172.74 16.42C173.16 16.4667 173.58 16.5367 174 16.63C174.374 16.7233 174.77 16.8167 175.19 16.91C175.657 17.0033 176.077 17.1667 176.45 17.4C177.43 17.68 178.247 18.03 178.9 18.45C179.554 18.87 180.23 19.3367 180.93 19.85ZM176.73 31.4C176.777 30.28 176.544 29.3 176.03 28.46C175.564 27.62 174.887 26.92 174 26.36C173.114 25.8 172.11 25.3567 170.99 25.03C169.87 24.7033 168.75 24.47 167.63 24.33C167.35 24.33 166.954 24.33 166.44 24.33C165.974 24.2833 165.46 24.26 164.9 24.26C164.34 24.2133 163.804 24.19 163.29 24.19C162.824 24.1433 162.45 24.12 162.17 24.12C161.937 24.0733 161.657 24.05 161.33 24.05C161.004 24.05 160.63 24.05 160.21 24.05C160.257 25.4967 160.28 26.8967 160.28 28.25C160.28 29.5567 160.28 30.98 160.28 32.52C160.234 33.36 160.21 34.2 160.21 35.04C160.21 35.88 160.21 36.6967 160.21 37.49L164.55 37.42C165.67 37.42 166.907 37.35 168.26 37.21C169.614 37.07 170.897 36.79 172.11 36.37C173.324 35.95 174.35 35.3433 175.19 34.55C176.077 33.7567 176.59 32.7067 176.73 31.4Z" fill="#4E4BDD"/>
</svg>
