<svg width="70" height="24" viewBox="0 0 70 24" fill="none" xmlns="http://www.w3.org/2000/svg">
<path d="M12.4064 4.32C13.2997 3.98667 14.1064 3.84 14.8264 3.88C15.5597 3.92 16.2131 4.10667 16.7864 4.44C17.3597 4.76 17.8464 5.19333 18.2464 5.74C18.6597 6.28667 18.9931 6.9 19.2464 7.58C19.4464 8.08667 19.5997 8.62 19.7064 9.18C19.8131 9.74 19.8731 10.3 19.8864 10.86C19.9131 11.4067 19.8931 11.9467 19.8264 12.48C19.7731 13.0133 19.6797 13.5067 19.5464 13.96C19.4664 14.2667 19.3731 14.5467 19.2664 14.8C19.1597 15.0533 19.0331 15.3067 18.8864 15.56C18.5531 16.1333 18.1197 16.6 17.5864 16.96C17.0664 17.32 16.4931 17.5733 15.8664 17.72C15.4397 17.8267 14.9997 17.88 14.5464 17.88C14.0931 17.8667 13.6464 17.8067 13.2064 17.7C12.7664 17.58 12.3397 17.4133 11.9264 17.2C11.5264 16.9733 11.1597 16.6933 10.8264 16.36C10.4131 15.96 10.0731 15.5 9.80641 14.98C9.53974 14.4467 9.33307 13.8933 9.18641 13.32C9.03974 12.7333 8.94641 12.1467 8.90641 11.56C8.86641 10.9733 8.86641 10.4133 8.90641 9.88C8.94641 9.38667 9.03974 8.86 9.18641 8.3C9.34641 7.74 9.57307 7.2 9.86641 6.68C10.1597 6.16 10.5131 5.69333 10.9264 5.28C11.3531 4.85333 11.8464 4.53333 12.4064 4.32ZM17.0864 12.88C17.2464 12.2533 17.3131 11.5467 17.2864 10.76C17.2597 9.97333 17.1331 9.23333 16.9064 8.54C16.7597 8.11333 16.5731 7.74 16.3464 7.42C16.1331 7.08667 15.8731 6.83333 15.5664 6.66C15.2731 6.48667 14.9264 6.4 14.5264 6.4C14.1264 6.4 13.6797 6.52 13.1864 6.76C12.8931 6.90667 12.6397 7.10667 12.4264 7.36C12.2264 7.61333 12.0597 7.9 11.9264 8.22C11.8064 8.54 11.7064 8.87333 11.6264 9.22C11.5597 9.56667 11.5197 9.9 11.5064 10.22C11.4797 10.5667 11.4731 10.9333 11.4864 11.32C11.4997 11.6933 11.5397 12.0733 11.6064 12.46C11.6864 12.8333 11.7931 13.1933 11.9264 13.54C12.0597 13.8733 12.2397 14.1733 12.4664 14.44C12.8131 14.84 13.2131 15.12 13.6664 15.28C14.1331 15.4267 14.5931 15.4467 15.0464 15.34C15.7797 15.18 16.3397 14.6933 16.7264 13.88C16.8864 13.5867 17.0064 13.2533 17.0864 12.88ZM28.9627 10.3C29.0693 10.4867 29.1227 10.6867 29.1227 10.9C29.136 11.1133 29.0893 11.3133 28.9827 11.5C28.8627 11.74 28.6893 11.9067 28.4627 12C28.2493 12.08 28.0093 12.0867 27.7427 12.02C27.6227 11.9933 27.516 11.9467 27.4227 11.88C27.3293 11.8133 27.2293 11.7467 27.1227 11.68C27.0293 11.6 26.916 11.5267 26.7827 11.46C26.6627 11.3933 26.5027 11.3467 26.3027 11.32C26.1027 11.2933 25.8827 11.2933 25.6427 11.32C25.416 11.3467 25.2093 11.4 25.0227 11.48C24.7293 11.6267 24.496 11.8533 24.3227 12.16C24.1493 12.4533 24.036 12.7733 23.9827 13.12C23.9293 13.4533 23.936 13.7933 24.0027 14.14C24.0827 14.4867 24.2293 14.78 24.4427 15.02C24.6027 15.2067 24.8093 15.36 25.0627 15.48C25.3293 15.6 25.5827 15.6733 25.8227 15.7C26.0493 15.7267 26.276 15.7267 26.5027 15.7C26.7293 15.66 26.9493 15.6067 27.1627 15.54C27.3227 15.4733 27.5027 15.3867 27.7027 15.28C27.9027 15.16 28.096 15.0867 28.2827 15.06C28.5227 15.06 28.7093 15.1267 28.8427 15.26C28.976 15.38 29.0693 15.5333 29.1227 15.72C29.176 15.8933 29.1827 16.08 29.1427 16.28C29.116 16.48 29.0427 16.6533 28.9227 16.8C28.7627 17 28.536 17.1933 28.2427 17.38C27.9493 17.5533 27.6693 17.68 27.4027 17.76C27.0827 17.8667 26.7227 17.9267 26.3227 17.94C25.936 17.9533 25.5693 17.94 25.2227 17.9C25.0627 17.8733 24.896 17.84 24.7227 17.8C24.5493 17.76 24.3827 17.7133 24.2227 17.66C23.636 17.4467 23.1427 17.1467 22.7427 16.76C22.356 16.36 22.056 15.9133 21.8427 15.42C21.6427 14.9267 21.5293 14.4 21.5027 13.84C21.476 13.28 21.5427 12.7267 21.7027 12.18C21.8493 11.66 22.0293 11.22 22.2427 10.86C22.4693 10.5 22.7293 10.2067 23.0227 9.98C23.3293 9.74 23.6693 9.55333 24.0427 9.42C24.416 9.27333 24.8293 9.14667 25.2827 9.04C25.7493 8.94667 26.2427 8.94667 26.7627 9.04C27.2827 9.13333 27.7493 9.30667 28.1627 9.56C28.4827 9.73333 28.7493 9.98 28.9627 10.3ZM38.6955 9.18C38.8021 9.43333 38.8088 9.71333 38.7155 10.02C38.6355 10.3267 38.4821 10.5267 38.2555 10.62C38.1355 10.6733 37.9755 10.72 37.7755 10.76C37.5755 10.7867 37.3555 10.8133 37.1155 10.84C36.8888 10.8667 36.6621 10.8867 36.4355 10.9C36.2088 10.9133 36.0155 10.92 35.8555 10.92C35.8688 11.32 35.8821 11.7333 35.8955 12.16C35.9088 12.5733 35.9221 12.98 35.9355 13.38C35.9488 13.78 35.9555 14.1667 35.9555 14.54C35.9555 14.9 35.9488 15.2267 35.9355 15.52C35.9355 15.72 35.9355 15.9533 35.9355 16.22C35.9355 16.4733 35.9155 16.72 35.8755 16.96C35.8488 17.2 35.8021 17.4133 35.7355 17.6C35.6688 17.7733 35.5688 17.8867 35.4355 17.94C35.0221 18.1133 34.6421 18.16 34.2955 18.08C33.9621 18.0133 33.7221 17.8733 33.5755 17.66C33.4688 17.4867 33.3888 17.2867 33.3355 17.06C33.2821 16.82 33.2421 16.58 33.2155 16.34C33.2021 16.0867 33.1955 15.8467 33.1955 15.62C33.2088 15.38 33.2155 15.1733 33.2155 15C33.2288 14.44 33.2355 13.8067 33.2355 13.1C33.2488 12.38 33.2555 11.66 33.2555 10.94H32.9555C32.7955 10.94 32.5888 10.94 32.3355 10.94C32.0955 10.9267 31.8488 10.9067 31.5955 10.88C31.3555 10.84 31.1288 10.7933 30.9155 10.74C30.7021 10.6733 30.5488 10.58 30.4555 10.46C30.3088 10.2867 30.2155 10.1 30.1755 9.9C30.1488 9.7 30.1621 9.51333 30.2155 9.34C30.2821 9.15333 30.3821 8.99333 30.5155 8.86C30.6488 8.71333 30.8021 8.62 30.9755 8.58C31.2155 8.51333 31.5555 8.48 31.9955 8.48C32.4355 8.46667 32.8488 8.46667 33.2355 8.48C33.2221 8.34667 33.2155 8.22 33.2155 8.1C33.2155 7.96667 33.2088 7.84 33.1955 7.72C33.1821 7.56 33.1755 7.36 33.1755 7.12C33.1755 6.86667 33.1888 6.62 33.2155 6.38C33.2555 6.12667 33.3155 5.89333 33.3955 5.68C33.4755 5.45333 33.5888 5.28 33.7355 5.16C33.9355 5 34.1355 4.91333 34.3355 4.9C34.5488 4.87333 34.7421 4.9 34.9155 4.98C35.1021 5.06 35.2555 5.18 35.3755 5.34C35.5088 5.48667 35.6021 5.65333 35.6555 5.84C35.6955 6 35.7288 6.19333 35.7555 6.42C35.7821 6.63333 35.7955 6.86 35.7955 7.1C35.8088 7.34 35.8155 7.58 35.8155 7.82C35.8155 8.06 35.8155 8.28 35.8155 8.48H36.0155C36.2155 8.48 36.4488 8.47333 36.7155 8.46C36.9821 8.44667 37.2421 8.45333 37.4955 8.48C37.7621 8.50667 38.0021 8.57333 38.2155 8.68C38.4288 8.77333 38.5888 8.94 38.6955 9.18ZM41.8705 9.58C42.2705 9.38 42.6905 9.24 43.1305 9.16C43.5705 9.06667 44.0038 9.04667 44.4305 9.1C44.8705 9.14 45.2905 9.25333 45.6905 9.44C46.0905 9.61333 46.4638 9.86667 46.8105 10.2C47.1571 10.5467 47.4238 10.9267 47.6105 11.34C47.7971 11.7533 47.9305 12.2133 48.0105 12.72C48.0638 13.0667 48.1505 13.3867 48.2705 13.68C48.3905 13.9733 48.5171 14.2667 48.6505 14.56C48.7971 14.8533 48.9305 15.1467 49.0505 15.44C49.1838 15.7333 49.2905 16.04 49.3705 16.36C49.4371 16.6667 49.4105 16.9667 49.2905 17.26C49.1838 17.54 48.9571 17.7133 48.6105 17.78C48.4105 17.82 48.2171 17.8067 48.0305 17.74C47.8571 17.66 47.6971 17.5533 47.5505 17.42C47.4038 17.2733 47.2705 17.12 47.1505 16.96C47.0438 16.7867 46.9438 16.6267 46.8505 16.48C46.5438 16.88 46.2105 17.1933 45.8505 17.42C45.4905 17.6333 45.0571 17.7733 44.5505 17.84C44.1238 17.8933 43.7171 17.9067 43.3305 17.88C42.9438 17.8533 42.5305 17.78 42.0905 17.66C41.5171 17.5133 41.0438 17.26 40.6705 16.9C40.3105 16.5267 40.0305 16.1 39.8305 15.62C39.6438 15.1267 39.5438 14.6 39.5305 14.04C39.5171 13.48 39.5838 12.9267 39.7305 12.38C39.9171 11.66 40.1971 11.0733 40.5705 10.62C40.9438 10.1667 41.3771 9.82 41.8705 9.58ZM42.3705 11.92C42.1838 12.1067 42.0371 12.3267 41.9305 12.58C41.8238 12.8333 41.7571 13.1 41.7305 13.38C41.7171 13.66 41.7438 13.94 41.8105 14.22C41.8771 14.5 41.9838 14.7467 42.1305 14.96C42.2638 15.1467 42.4905 15.3067 42.8105 15.44C43.1305 15.56 43.4638 15.6333 43.8105 15.66C44.2105 15.6867 44.5571 15.58 44.8505 15.34C45.1571 15.1 45.3838 14.8 45.5305 14.44C45.6905 14.0667 45.7638 13.6733 45.7505 13.26C45.7371 12.8333 45.6238 12.4467 45.4105 12.1C45.2505 11.8467 45.0371 11.66 44.7705 11.54C44.5171 11.42 44.2438 11.36 43.9505 11.36C43.6571 11.3467 43.3638 11.3933 43.0705 11.5C42.7905 11.5933 42.5571 11.7333 42.3705 11.92ZM59.6944 5.1C60.201 5.56667 60.5744 6.12667 60.8144 6.78C61.0544 7.42 61.1477 8.06 61.0944 8.7C61.041 9.31333 60.8477 9.88 60.5144 10.4C60.181 10.9067 59.6744 11.2933 58.9944 11.56C58.461 11.7867 57.9344 11.9467 57.4144 12.04C56.8944 12.1333 56.321 12.2067 55.6944 12.26C55.4144 12.2867 55.1744 12.3067 54.9744 12.32C54.7877 12.32 54.5677 12.3267 54.3144 12.34C54.261 12.34 54.1677 12.34 54.0344 12.34C53.9144 12.34 53.8277 12.3467 53.7744 12.36V16.5C53.7344 16.7533 53.681 17.0133 53.6144 17.28C53.561 17.5467 53.4077 17.7533 53.1544 17.9C53.0077 17.98 52.8277 18.0267 52.6144 18.04C52.401 18.0533 52.2077 18.0467 52.0344 18.02C51.8477 17.9933 51.6877 17.9467 51.5544 17.88C51.4344 17.8 51.3344 17.6667 51.2544 17.48C51.201 17.36 51.1477 17.2267 51.0944 17.08C51.0544 16.92 51.0344 16.7267 51.0344 16.5V5.44C51.0344 5.34667 51.041 5.26 51.0544 5.18C51.0677 5.1 51.081 5.02 51.0944 4.94C51.121 4.87333 51.141 4.8 51.1544 4.72C51.1677 4.64 51.1877 4.56667 51.2144 4.5C51.241 4.43333 51.2677 4.37333 51.2944 4.32C51.3344 4.26667 51.381 4.22 51.4344 4.18C51.501 4.11333 51.601 4.05333 51.7344 4C51.881 3.94667 52.0944 3.92 52.3744 3.92H52.4144C52.8277 3.89333 53.2877 3.87333 53.7944 3.86C54.301 3.83333 54.721 3.84 55.0544 3.88C55.241 3.90667 55.4144 3.92667 55.5744 3.94C55.7344 3.94 55.8877 3.94667 56.0344 3.96C56.1944 3.97333 56.3544 3.98667 56.5144 4C56.6744 4.01333 56.8344 4.03333 56.9944 4.06C57.1277 4.08667 57.2477 4.10667 57.3544 4.12C57.4744 4.13333 57.5944 4.15333 57.7144 4.18C57.821 4.20667 57.9344 4.23333 58.0544 4.26C58.1877 4.28667 58.3077 4.33333 58.4144 4.4C58.6944 4.48 58.9277 4.58 59.1144 4.7C59.301 4.82 59.4944 4.95333 59.6944 5.1ZM58.4944 8.4C58.5077 8.08 58.441 7.8 58.2944 7.56C58.161 7.32 57.9677 7.12 57.7144 6.96C57.461 6.8 57.1744 6.67333 56.8544 6.58C56.5344 6.48667 56.2144 6.42 55.8944 6.38C55.8144 6.38 55.701 6.38 55.5544 6.38C55.421 6.36667 55.2744 6.36 55.1144 6.36C54.9544 6.34667 54.801 6.34 54.6544 6.34C54.521 6.32667 54.4144 6.32 54.3344 6.32C54.2677 6.30667 54.1877 6.3 54.0944 6.3C54.001 6.3 53.8944 6.3 53.7744 6.3C53.7877 6.71333 53.7944 7.11333 53.7944 7.5C53.7944 7.87333 53.7944 8.28 53.7944 8.72C53.781 8.96 53.7744 9.2 53.7744 9.44C53.7744 9.68 53.7744 9.91333 53.7744 10.14L55.0144 10.12C55.3344 10.12 55.6877 10.1 56.0744 10.06C56.461 10.02 56.8277 9.94 57.1744 9.82C57.521 9.7 57.8144 9.52667 58.0544 9.3C58.3077 9.07333 58.4544 8.77333 58.4944 8.4Z" fill="#4E4BDD"/>
</svg>
