<svg width="40" height="40" viewBox="0 0 50 50" fill="none" xmlns="http://www.w3.org/2000/svg">
<path fill-rule="evenodd" clip-rule="evenodd" d="M43.75 25C43.75 35.3553 35.3553 43.75 25 43.75C14.6447 43.75 6.25 35.3553 6.25 25C6.25 14.6447 14.6447 6.25 25 6.25C35.3553 6.25 43.75 14.6447 43.75 25ZM25 36.4167C24.4477 36.4167 24 35.969 24 35.4167V26H14.5833C14.031 26 13.5833 25.5523 13.5833 25C13.5833 24.4477 14.031 24 14.5833 24H24V14.5833C24 14.0311 24.4477 13.5833 25 13.5833C25.5523 13.5833 26 14.0311 26 14.5833V24H35.4167C35.969 24 36.4167 24.4477 36.4167 25C36.4167 25.5523 35.969 26 35.4167 26H26V35.4167C26 35.969 25.5523 36.4167 25 36.4167Z" fill="#4E4BDD"/>
</svg>
