<svg width="29" height="29" viewBox="0 0 29 29" fill="none" xmlns="http://www.w3.org/2000/svg">
<path d="M4.83398 10.875C4.83398 7.45732 4.83398 5.74848 5.89572 4.68674C6.95746 3.625 8.6663 3.625 12.084 3.625H16.9173C20.335 3.625 22.0438 3.625 23.1056 4.68674C24.1673 5.74848 24.1673 7.45732 24.1673 10.875V19.125C24.1673 22.3673 24.1673 23.9885 23.1471 24.4843C22.1269 24.9802 20.8522 23.9786 18.3027 21.9754L17.4868 21.3343C16.0533 20.208 15.3365 19.6448 14.5007 19.6448C13.6648 19.6448 12.948 20.208 11.5145 21.3343L10.6986 21.9754C8.1491 23.9786 6.87436 24.9802 5.85417 24.4843C4.83398 23.9885 4.83398 22.3673 4.83398 19.125V10.875Z" fill="#FFD336"/>
</svg>
