<svg width="24" height="24" viewBox="0 0 24 24" fill="none" xmlns="http://www.w3.org/2000/svg">
<path d="M20 14L20.7071 13.2929L21.4142 14L20.7071 14.7071L20 14ZM3 6C3 5.44772 3.44772 5 4 5C4.55229 5 5 5.44772 5 6L3 6ZM15.7071 8.29289L20.7071 13.2929L19.2929 14.7071L14.2929 9.70711L15.7071 8.29289ZM20.7071 14.7071L15.7071 19.7071L14.2929 18.2929L19.2929 13.2929L20.7071 14.7071ZM20 15L10 15L10 13L20 13L20 15ZM3 8L3 6L5 6L5 8L3 8ZM10 15C6.13401 15 3 11.866 3 8L5 8C5 10.7614 7.23858 13 10 13L10 15Z" fill="#33363F"/>
</svg>
