<svg width="22" height="22" viewBox="0 0 22 22" fill="none" xmlns="http://www.w3.org/2000/svg">
<path d="M4.125 20.1663C3.75833 20.1663 3.4375 20.0288 3.1625 19.7538C2.8875 19.4788 2.75 19.158 2.75 18.7913V4.58301C2.75 4.21634 2.8875 3.89551 3.1625 3.62051C3.4375 3.34551 3.75833 3.20801 4.125 3.20801H5.61458V1.83301H7.10417V3.20801H14.8958V1.83301H16.3854V3.20801H17.875C18.2417 3.20801 18.5625 3.34551 18.8375 3.62051C19.1125 3.89551 19.25 4.21634 19.25 4.58301V18.7913C19.25 19.158 19.1125 19.4788 18.8375 19.7538C18.5625 20.0288 18.2417 20.1663 17.875 20.1663H4.125ZM4.125 18.7913H17.875V8.93717H4.125V18.7913ZM4.125 7.56217H17.875V4.58301H4.125V7.56217ZM11 12.833C10.7403 12.833 10.5226 12.7452 10.3469 12.5695C10.1712 12.3938 10.0833 12.1761 10.0833 11.9163C10.0833 11.6566 10.1712 11.4389 10.3469 11.2632C10.5226 11.0875 10.7403 10.9997 11 10.9997C11.2597 10.9997 11.4774 11.0875 11.6531 11.2632C11.8288 11.4389 11.9167 11.6566 11.9167 11.9163C11.9167 12.1761 11.8288 12.3938 11.6531 12.5695C11.4774 12.7452 11.2597 12.833 11 12.833ZM7.33333 12.833C7.07361 12.833 6.8559 12.7452 6.68021 12.5695C6.50451 12.3938 6.41667 12.1761 6.41667 11.9163C6.41667 11.6566 6.50451 11.4389 6.68021 11.2632C6.8559 11.0875 7.07361 10.9997 7.33333 10.9997C7.59306 10.9997 7.81076 11.0875 7.98646 11.2632C8.16215 11.4389 8.25 11.6566 8.25 11.9163C8.25 12.1761 8.16215 12.3938 7.98646 12.5695C7.81076 12.7452 7.59306 12.833 7.33333 12.833ZM14.6667 12.833C14.4069 12.833 14.1892 12.7452 14.0135 12.5695C13.8378 12.3938 13.75 12.1761 13.75 11.9163C13.75 11.6566 13.8378 11.4389 14.0135 11.2632C14.1892 11.0875 14.4069 10.9997 14.6667 10.9997C14.9264 10.9997 15.1441 11.0875 15.3198 11.2632C15.4955 11.4389 15.5833 11.6566 15.5833 11.9163C15.5833 12.1761 15.4955 12.3938 15.3198 12.5695C15.1441 12.7452 14.9264 12.833 14.6667 12.833ZM11 16.4997C10.7403 16.4997 10.5226 16.4118 10.3469 16.2361C10.1712 16.0604 10.0833 15.8427 10.0833 15.583C10.0833 15.3233 10.1712 15.1056 10.3469 14.9299C10.5226 14.7542 10.7403 14.6663 11 14.6663C11.2597 14.6663 11.4774 14.7542 11.6531 14.9299C11.8288 15.1056 11.9167 15.3233 11.9167 15.583C11.9167 15.8427 11.8288 16.0604 11.6531 16.2361C11.4774 16.4118 11.2597 16.4997 11 16.4997ZM7.33333 16.4997C7.07361 16.4997 6.8559 16.4118 6.68021 16.2361C6.50451 16.0604 6.41667 15.8427 6.41667 15.583C6.41667 15.3233 6.50451 15.1056 6.68021 14.9299C6.8559 14.7542 7.07361 14.6663 7.33333 14.6663C7.59306 14.6663 7.81076 14.7542 7.98646 14.9299C8.16215 15.1056 8.25 15.3233 8.25 15.583C8.25 15.8427 8.16215 16.0604 7.98646 16.2361C7.81076 16.4118 7.59306 16.4997 7.33333 16.4997ZM14.6667 16.4997C14.4069 16.4997 14.1892 16.4118 14.0135 16.2361C13.8378 16.0604 13.75 15.8427 13.75 15.583C13.75 15.3233 13.8378 15.1056 14.0135 14.9299C14.1892 14.7542 14.4069 14.6663 14.6667 14.6663C14.9264 14.6663 15.1441 14.7542 15.3198 14.9299C15.4955 15.1056 15.5833 15.3233 15.5833 15.583C15.5833 15.8427 15.4955 16.0604 15.3198 16.2361C15.1441 16.4118 14.9264 16.4997 14.6667 16.4997Z" fill="black"/>
</svg>
