<svg width="40" height="40" viewBox="0 0 40 40" fill="none" xmlns="http://www.w3.org/2000/svg">
<path d="M15.0007 16.6663L20.9254 21.1099C21.3439 21.4238 21.9335 21.3621 22.278 20.9684L33.334 8.33301" stroke="#A7A7A7" stroke-width="2" stroke-linecap="round"/>
<path d="M35 20C35 23.1342 34.0183 26.1896 32.1927 28.7372C30.3671 31.2848 27.7894 33.1965 24.8216 34.204C21.8538 35.2114 18.6449 35.2639 15.6457 34.3541C12.6465 33.4443 10.0077 31.6179 8.0997 29.1314C6.19175 26.6449 5.11058 23.6233 5.00803 20.4908C4.90548 17.3583 5.78671 14.2724 7.52796 11.6664C9.2692 9.0605 11.783 7.06542 14.7162 5.96141C17.6495 4.85741 20.8549 4.69993 23.8823 5.51111" stroke="#A7A7A7" stroke-width="2" stroke-linecap="round"/>
</svg>
