<svg width="40" height="40" viewBox="0 0 40 40" fill="none" xmlns="http://www.w3.org/2000/svg">
<path d="M18.2111 34.1059L17.7639 35.0003L18.2111 34.1059ZM21.7889 34.1059L21.3416 33.2115V33.2115L21.7889 34.1059ZM22.2278 33.8864L22.675 34.7809L22.2278 33.8864ZM23.3739 32.0984L22.376 32.0328L23.3739 32.0984ZM23.164 33.2701L22.3311 32.7168L23.164 33.2701ZM16.6261 32.0985L15.6283 32.1641L16.6261 32.0985ZM17.7722 33.8864L17.325 34.7809L17.7722 33.8864ZM16.836 33.2701L16.003 33.8235L16.836 33.2701ZM14.3307 24.9058L13.7631 25.7291L14.3307 24.9058ZM15.0832 25.7758L15.9991 25.3744L15.0832 25.7758ZM14.832 25.2977L15.6031 24.661L14.832 25.2977ZM25.6693 24.9058L25.1017 24.0825L25.6693 24.9058ZM24.9168 25.7758L25.8327 26.1773L24.9168 25.7758ZM25.168 25.2977L24.3969 24.661L25.168 25.2977ZM29 16.667C29 19.7422 27.4586 22.4576 25.1017 24.0825L26.2369 25.7291C29.1121 23.7468 31 20.4275 31 16.667H29ZM20 7.66699C24.9706 7.66699 29 11.6964 29 16.667H31C31 10.5919 26.0751 5.66699 20 5.66699V7.66699ZM11 16.667C11 11.6964 15.0294 7.66699 20 7.66699V5.66699C13.9249 5.66699 9 10.5919 9 16.667H11ZM14.8983 24.0825C12.5414 22.4576 11 19.7422 11 16.667H9C9 20.4275 10.8879 23.7468 13.7631 25.7291L14.8983 24.0825ZM17.624 32.0329C17.4728 29.7339 16.9223 27.4808 15.9991 25.3744L14.1673 26.1773C14.9973 28.0712 15.4924 30.097 15.6283 32.1641L17.624 32.0329ZM18.6584 33.2115L18.2195 32.992L17.325 34.7809L17.7639 35.0003L18.6584 33.2115ZM21.3416 33.2115C20.4971 33.6338 19.5029 33.6338 18.6584 33.2115L17.7639 35.0003C19.1716 35.7041 20.8284 35.7041 22.2361 35.0003L21.3416 33.2115ZM21.7805 32.992L21.3416 33.2115L22.2361 35.0003L22.675 34.7809L21.7805 32.992ZM24.0009 25.3744C23.0777 27.4808 22.5272 29.7339 22.376 32.0328L24.3717 32.1641C24.5076 30.097 25.0027 28.0712 25.8327 26.1773L24.0009 25.3744ZM22.675 34.7809C22.9211 34.6578 23.1679 34.5356 23.3669 34.4114C23.5814 34.2777 23.8141 34.0987 23.997 33.8235L22.3311 32.7168C22.3665 32.6635 22.394 32.6611 22.3087 32.7144C22.208 32.7772 22.0603 32.8521 21.7805 32.992L22.675 34.7809ZM22.376 32.0328C22.354 32.3674 22.3409 32.5531 22.3204 32.6853C22.3017 32.8061 22.2903 32.7782 22.3311 32.7168L23.997 33.8235C24.1852 33.5401 24.2579 33.243 24.2968 32.9917C24.334 32.7518 24.3521 32.4626 24.3717 32.1641L22.376 32.0328ZM15.6283 32.1641C15.6479 32.4626 15.666 32.7518 15.7032 32.9917C15.7421 33.243 15.8148 33.5401 16.003 33.8235L17.6689 32.7168C17.7097 32.7782 17.6983 32.8061 17.6796 32.6853C17.6591 32.5531 17.646 32.3674 17.624 32.0329L15.6283 32.1641ZM18.2195 32.992C17.9397 32.8521 17.792 32.7772 17.6913 32.7144C17.606 32.6611 17.6335 32.6635 17.6689 32.7168L16.003 33.8235C16.1859 34.0987 16.4186 34.2777 16.6331 34.4114C16.8321 34.5356 17.0789 34.6578 17.325 34.7809L18.2195 32.992ZM13.7631 25.7291C13.9084 25.8293 13.9886 25.8848 14.0451 25.9279C14.0977 25.968 14.0863 25.9652 14.0608 25.9343L15.6031 24.661C15.403 24.4186 15.1158 24.2324 14.8983 24.0825L13.7631 25.7291ZM15.9991 25.3744C15.9109 25.1733 15.8003 24.8999 15.6031 24.661L14.0608 25.9343C14.0444 25.9144 14.042 25.9044 14.0585 25.937C14.0679 25.9555 14.0807 25.9822 14.0994 26.0238C14.1183 26.0656 14.1395 26.114 14.1673 26.1773L15.9991 25.3744ZM25.1017 24.0825C24.8842 24.2324 24.597 24.4186 24.3969 24.661L25.9392 25.9343C25.9137 25.9652 25.9023 25.968 25.9549 25.9279C26.0114 25.8848 26.0916 25.8293 26.2369 25.7291L25.1017 24.0825ZM25.8327 26.1773C25.8604 26.114 25.8817 26.0656 25.9006 26.0238C25.9193 25.9822 25.9321 25.9555 25.9415 25.937C25.958 25.9044 25.9556 25.9144 25.9392 25.9343L24.3969 24.661C24.1997 24.8999 24.0891 25.1733 24.0009 25.3744L25.8327 26.1773Z" fill="#FBBC19"/>
<path d="M24.9874 26.667V26.667C21.9689 28.6846 18.0321 28.6846 15.0137 26.667V26.667" stroke="#FBBC19" stroke-width="2"/>
</svg>
