<svg width="40" height="40" viewBox="0 0 40 40" fill="none" xmlns="http://www.w3.org/2000/svg">
<path d="M11.4498 35.75H3C2.44772 35.75 2 35.3023 2 34.75V18.75C2 18.1977 2.44771 17.75 3 17.75H11.4498C11.5327 17.75 11.5998 17.8172 11.5998 17.9V35.6C11.5998 35.6828 11.5327 35.75 11.4498 35.75Z" stroke="#33363F" stroke-width="3" stroke-linecap="round"/>
<path d="M11.5996 17.75L16.2145 11.2602C16.3349 11.0909 16.3995 10.8884 16.3995 10.6807V3C16.3995 2.44772 16.8472 2 17.3995 2H23.9994C25.1039 2 25.9994 2.89543 25.9994 4V17.75" stroke="#33363F" stroke-width="3" stroke-linecap="round"/>
<path d="M21.1995 17.75H35.7481C36.946 17.75 37.8752 18.7958 37.7342 19.9854L35.8084 36.2354C35.6891 37.2419 34.8358 38 33.8223 38H21.5949C21.3408 38 21.0963 37.9033 20.911 37.7295L19.088 36.0205C18.9026 35.8467 18.6581 35.75 18.404 35.75H11.5996" stroke="#33363F" stroke-width="3" stroke-linecap="round"/>
</svg>
