<svg width="20" height="18" viewBox="0 0 20 18" fill="none" xmlns="http://www.w3.org/2000/svg">
<circle cx="15" cy="13" r="2.5" stroke="white" stroke-width="2"/>
<path d="M17 15L19 17" stroke="white" stroke-width="2" stroke-linecap="round"/>
<path fill-rule="evenodd" clip-rule="evenodd" d="M0 7.2C0 4.67976 0 3.41965 0.490471 2.45704C0.921901 1.61031 1.61031 0.921901 2.45704 0.490471C3.41965 0 4.67976 0 7.2 0H7.8C10.3202 0 11.5804 0 12.543 0.490471C13.3897 0.921901 14.0781 1.61031 14.5095 2.45704C15 3.41965 15 4.67976 15 7.2V7.8C15 8.20303 15 8.57383 14.998 8.91635C14.3449 7.34238 12.9122 6.24993 11.25 6.24993C8.97183 6.24993 7.125 8.30196 7.125 10.8333C7.125 12.6751 8.10274 14.2631 9.51296 14.9916C9.0146 15 8.44909 15 7.8 15H3.2C2.07989 15 1.51984 15 1.09202 14.782C0.715695 14.5903 0.409734 14.2843 0.217987 13.908C0 13.4802 0 12.9201 0 11.8V7.2ZM2.75 5.83331C2.75 5.28102 3.19772 4.83331 3.75 4.83331H8.25C8.80228 4.83331 9.25 5.28102 9.25 5.83331C9.25 6.38559 8.80228 6.83331 8.25 6.83331H3.75C3.19772 6.83331 2.75 6.38559 2.75 5.83331ZM2.75 9.16664C2.75 8.61436 3.19772 8.16664 3.75 8.16664H6C6.55228 8.16664 7 8.61436 7 9.16664C7 9.71893 6.55228 10.1666 6 10.1666H3.75C3.19772 10.1666 2.75 9.71893 2.75 9.16664Z" fill="white"/>
</svg>
