<svg width="20" height="24" viewBox="0 0 20 24" fill="none" xmlns="http://www.w3.org/2000/svg">
<path d="M16.7928 24C15.9168 24 15.1721 23.6665 14.5589 22.9996C13.9456 22.3327 13.639 21.5228 13.639 20.5701C13.639 20.4367 13.6528 20.2736 13.6805 20.0807C13.7081 19.8879 13.7496 19.7143 13.805 19.56L5.4224 14.28C5.14574 14.62 4.80454 14.895 4.39878 15.105C3.99302 15.315 3.57804 15.42 3.15384 15.42C2.27777 15.42 1.53312 15.0875 0.919871 14.4225C0.306624 13.7575 0 12.95 0 12C0 11.05 0.306624 10.2425 0.919871 9.5775C1.53312 8.9125 2.27777 8.58 3.15384 8.58C3.57804 8.58 3.9838 8.67 4.37111 8.85C4.75843 9.03 5.10886 9.29 5.4224 9.63L13.805 4.41C13.7496 4.26858 13.7081 4.10947 13.6805 3.93267C13.6528 3.75589 13.639 3.585 13.639 3.42C13.639 2.47 13.9456 1.6625 14.5589 0.9975C15.1721 0.3325 15.9168 0 16.7928 0C17.6689 0 18.4136 0.3325 19.0268 0.9975C19.64 1.6625 19.9467 2.47 19.9467 3.42C19.9467 4.37 19.64 5.1775 19.0268 5.8425C18.4136 6.5075 17.6689 6.84 16.7928 6.84C16.3621 6.84 15.9501 6.765 15.5568 6.615C15.1636 6.465 14.8286 6.22 14.5519 5.88L6.16936 10.92C6.20624 11.08 6.23852 11.265 6.26619 11.475C6.29385 11.685 6.30768 11.8624 6.30768 12.0072C6.30768 12.1521 6.29385 12.3021 6.26619 12.4572C6.23852 12.6124 6.20624 12.77 6.16936 12.93L14.5519 18.09C14.8286 17.81 15.1514 17.585 15.5202 17.415C15.8891 17.245 16.3133 17.16 16.7928 17.16C17.6689 17.16 18.4136 17.4925 19.0268 18.1575C19.64 18.8225 19.9467 19.63 19.9467 20.58C19.9467 21.53 19.64 22.3375 19.0268 23.0025C18.4136 23.6675 17.6689 24 16.7928 24ZM16.7938 5.04C17.2174 5.04 17.5721 4.88465 17.8579 4.57395C18.1438 4.26325 18.2868 3.87825 18.2868 3.41895C18.2868 2.95965 18.1435 2.575 17.857 2.265C17.5705 1.955 17.2154 1.8 16.7919 1.8C16.3683 1.8 16.0136 1.95535 15.7277 2.26605C15.4418 2.57675 15.2989 2.96175 15.2989 3.42105C15.2989 3.88035 15.4422 4.265 15.7287 4.575C16.0152 4.885 16.3702 5.04 16.7938 5.04ZM3.15481 13.62C3.57837 13.62 3.93308 13.4647 4.21896 13.154C4.50483 12.8433 4.64777 12.4583 4.64777 11.999C4.64777 11.5397 4.50451 11.155 4.21799 10.845C3.93147 10.535 3.57643 10.38 3.15287 10.38C2.72932 10.38 2.3746 10.5353 2.08873 10.8461C1.80285 11.1567 1.65992 11.5418 1.65992 12.0011C1.65992 12.4604 1.80318 12.845 2.0897 13.155C2.37622 13.465 2.73126 13.62 3.15481 13.62ZM16.7938 22.2C17.2174 22.2 17.5721 22.0447 17.8579 21.734C18.1438 21.4233 18.2868 21.0382 18.2868 20.579C18.2868 20.1196 18.1435 19.735 17.857 19.425C17.5705 19.115 17.2154 18.96 16.7919 18.96C16.3683 18.96 16.0136 19.1154 15.7277 19.4261C15.4418 19.7368 15.2989 20.1218 15.2989 20.5811C15.2989 21.0404 15.4422 21.425 15.7287 21.735C16.0152 22.045 16.3702 22.2 16.7938 22.2Z" fill="black"/>
</svg>
